<svg xmlns="http://www.w3.org/2000/svg" width="315" height="125" viewBox="0 0 315 125"><path fill="#FFD027" d="M118.886 116.013c-.606-1.891-1.782-3.569-2.911-5.182a140.08 140.08 0 0 0-4.47-6.048c-1.517-1.937-3.278-3.583-3.974-6.018-.41-1.442-.504-3.735.9-4.754.637-.463 2.408-1.021 1.432-2.105-.512-.568-1.225-.911-1.736-1.498-1.109-1.272-2.312-3.547-1.351-5.204.516-.891 1.893-1.206 2.004-2.349.112-1.13-1.444-1.142-1.724-2.089-.682-2.304 2.469-2.343 2.906-4.059.257-1.003-.892-1.495-1.619-1.886-.668-.361-1.084-.654-1.395-1.348-.428-.957.023-1.699.229-2.617.234-1.057.297-2.168.044-3.229-.407-1.706-1.782-3.146-3.558-3.477-.976-.183-2.033-.534-2.982-.843-1.199-.392-.063-.477.621-.712 1.758-.611 3.359-1.972 4.716-3.213 1.802-1.647 3.413-3.527 4.04-5.931 1.12-4.305-.271-7.699-.547-11.563-.246-3.437-.32-6.852-.291-10.294.016-1.635.008-3.261.064-4.893.072-2.097.412-4.158.799-6.214.739-3.929 1.531-8.653-1.79-11.889-1.726-1.683-4.558-.937-6.575-.168-1.848.701-3.52 1.549-5.27 2.446-3.028 1.553-5.725 4.12-8.137 6.467-2.645 2.575-4.916 5.49-7.011 8.524-2.374 3.433-4.227 7.079-5.655 10.992-.947 2.586-1.746 5.223-2.587 7.843-1.067 3.333-2.015 6.467-3.411 9.913a65.044 65.044 0 0 0-.857 2.266c-.261.719-.629 2.131-.754 1.122-.117-.945-.48-2.146-1.527-2.406-.355-.086-.246-.524-.633-.936-.279-.295-.586-.486-.976-.57-.12-.027-.817.2-1.153.959-.285.639-.414.272-.771.639-.846.875-.89 1.733-.967 2.172-.083.471-.234.266-.303.072-3.019-8.49-5.698-16.037-7.171-20.341-2.255-6.595-3.774-9.587-6.905-14.418-3.134-4.83-8.531-9.775-9.398-10.416-7.316-5.408-9.738-5.586-12.116-6.304-3.852-1.161-5.095 1.7-5.282 2.075-.428.854-2.039 3.095-1.209 7.548 1.412 7.579 1.209 13.475 1.232 15.011.082 5.056 0 8.151-.904 13.738-.906 5.586-.277 8.98 2.54 12.202 2.817 3.221 5.585 4.606 6.491 4.856.906.252.227.252-.124.327-3.403.729-3.901 1.259-4.379 1.459-.944.397-1.787 1.61-2.038 2.643-.734 3.011.301 4.251.251 4.807-.155 1.715-.629 1.936-2.39 2.816-1.37.687-1.359 1.761.201 2.896.73.529 1.283.654 1.484 1.936.047.303.303 1.057-.806 1.687-1.174.668-1.483 1.459-.075 2.617 1.41 1.156 1.334 2.316 1.209 2.818-.765 3.054-2.5 4.099-3.246 4.631-1.385.979-.152 1.86.125 1.961.277.1 1.158.679 1.359 1.309 1.011 3.16-.276 5.233-.68 6.04-.609 1.217-1.887 2.188-4.026 4.729-1.942 2.312-5.064 6.801-5.284 7.121-.703 1.031-1.812 2.893-1.938 3.774-.534 3.745 2.239 2.288 2.794 1.761 1.865-1.781 2.29-2.138 5.208-7.146 2.174-3.729 3.312-4.966 3.95-5.41 1.661-1.157 1.812-.251 1.888.304.074.552-.252.661.252 2.313.604 1.988 1.584.779 2.088.427.502-.353 2.088-2.942 2.617-3.369.525-.428 1.484-.655 1.986-.05.846 1.013 1.686 1.811 2.592 2.11 1.088.363 1.535.529 1.963-.679.896-2.527 1.158-3.019 1.334-3.195.176-.176 1.057-1.609 1.459-1.988 1.377-1.289 1.385-.225 2.77-.327 2.089-.15 3.547-.577 5.08-1.634 1.537-1.057 2.365-2.088 3.223-3.522.855-1.436.729-.782 2.415-4.556 1.685-3.774 1.282-3.421 4.504-7.976 3.22-4.554 6.44-7.901 6.593-8.001.197-.132.498-.687.703.05.178.629.252 1.106.252 1.358 0 .253-.176 1.106-.252 1.637-.074.526-.326 1.761-.68 4.101-.352 2.339-.428 6.643 1.932 9.201.303.329.604.608.838.813.6.521 1.166.091 1.377-.084.21-.177.366-.32.599-.584 2.138-2.415 2.307-5.99 1.964-9.01-.16-1.409-.37-2.811-.567-4.213-.062-.44-.13-.879-.167-1.323-.053-.608.184-.999.312-1.587.132-.614.476-.116.72.146.457.488.893.995 1.325 1.503a45.787 45.787 0 0 1 1.931 2.398c1.742 2.356 3.424 4.778 4.893 7.316 2.511 4.336 3.572 10.362 8.4 12.874.98.51 2.072.867 3.176.965.734.063 1.633-.346 2.312-.068.938.384 1.671 1.579 2.184 2.401.509.813.771 1.781 1.026 2.697.263.942.455 1.834 1.609 1.688.973-.12 1.882-.805 2.529-1.5.59-.634 1.312-1.527 2.242-.909.727.484 1.207 1.269 1.653 2.004.736 1.212 2.836 3.911 3.46 1.18.188-.825.012-1.985.424-2.73.562-1.015 2.16.86 2.497 1.242.991 1.125 1.821 2.569 2.499 3.901.698 1.371 1.572 2.656 2.333 3.99.719 1.262 1.61 2.504 2.669 3.509.706.67 1.909 1.843 2.957 1.084.781-.564.644-1.768.393-2.554"/><path fill="#FFF" d="M95.421 64.619c-.571.75-1.86.77-2.689 1.025-1.071.334-2.276.709-3.092 1.511-.825.813-.631 1.639-.249 2.6.244.614.537 1.226.95 1.746.372.465.746 1.001.335 1.567-.707.977-1.897 1.036-2.9 1.513-.865.416-2.352 1.248-.843 1.939.955.438 2.463.8 2.327 2.183-.119 1.216-1.888 1.898-2.556 2.805-.612.829-.646 1.768.095 2.515 1.807 1.823.393 4.208-1.081 5.718-1.024 1.048-2.258 1.865-3.528 2.583-.592.337-1.567 1.26-1.973.512a23.194 23.194 0 0 1-1.447-3.192c-.234-.643-.831-1.309-.079-1.677 1.891-.928 4.429-2.361 4.633-4.729.169-1.987-3.326-3.779-1.096-5.785.481-.434 1.556-.899 1.825-1.528.354-.821-.068-1.793-.785-2.259-.236-.152-1.609-.486-1.271-.916.226-.291.62-.454.945-.613.654-.325 1.996-.668 2.156-1.531.111-.601-.436-1.07-.653-1.575-.248-.573-.565-1.132-.646-1.76-.108-.854.317-1.559 1.051-1.972 1.316-.741 3.897-.442 4.644-1.858 1.153-2.187-1.656-4.206-2.887-5.651-.893-1.048-1.722-2.149-2.545-3.254-.57-.763-1.159-1.477-1.367-2.436-.271-1.243.243-2.053.767-3.107.381-.768.549-1.645.625-2.494.269-2.963-.472-6.088-1.905-8.68-.701-1.271-1.629-2.382-2.693-3.363-.467-.427-1.303-.81-1.676-1.308-.325-.433 1.152-2.515 1.334-2.86.5-.945 1.072-2.122 1.881-2.852.828.243 1.734 1.443 2.271 2.04a20.214 20.214 0 0 1 3.024 4.392c1.188 2.338 2.015 4.88 2.301 7.493.176 1.6.122 3.242-.324 4.795-.366 1.276-1.339 2.288-1.198 3.679.272 2.67 2.412 4.733 3.898 6.839 1.188 1.685 2.499 3.354 4.074 4.69.954.807 1.11 2.254.347 3.255M50.291 34.298a12.313 12.313 0 0 0-2.26 3.08c-1.283 2.499-2.124 5.448-1.809 8.279.133 1.195.434 1.934.972 2.97.546 1.049.432 2.37-.133 3.373-.485.859-1.163 1.604-1.784 2.365-.94 1.156-1.865 2.34-2.896 3.415-.578.604-1.545 1.216-1.951 1.954-.506.918-.656 2.425.35 3.104 1.444.973 4.771.622 5.123 2.885.098.624-.12 1.248-.385 1.803-.295.615-1.175 1.6-.926 2.252.368.963 1.685 1.202 2.447 1.718 1.372.93-.583 1.036-1.161 1.725-1.918 2.279 2.64 3.112 1.934 5.592-.282.989-1.131 1.456-1.575 2.325-.498.971-.109 2.229.488 3.065.66.927 1.559 1.669 2.508 2.278.441.282.877.566 1.33.828.512.293.287.604.098 1.051-.453 1.066-.869 2.143-1.385 3.182-.199.4-.399.8-.617 1.19-.238.432-.611.071-.943-.11-2.384-1.294-5.111-3.046-6.074-5.735-.311-.866-.381-1.89.113-2.699.513-.844 1.5-1.35 1.021-2.51-.443-1.079-1.486-1.706-2.328-2.44-1.213-1.057-.107-2.547 1.122-2.912.632-.188 2.11-.755 1.06-1.529-1.005-.746-2.252-.95-3.314-1.57-2.629-1.537 2.027-3.959.842-6.115-.589-1.072-1.902-1.552-2.971-1.965-.924-.357-2.351-.441-3.034-1.173-.614-.661-.776-1.62-.458-2.457.385-1.009 1.678-1.717 2.402-2.511 1.611-1.771 3.006-3.713 4.438-5.629 1.198-1.602 3.143-3.907 1.862-6.03-2.714-4.506-.59-11.096 1.947-15.215 1.176-1.909 2.727-3.968 4.604-5.261.509-.429 1.409 1.824 1.589 2.2a57.245 57.245 0 0 1 1.486 3.268c.301.739-1.228 1.453-1.732 1.959"/><path fill="#FFD027" d="M170.224 44.6l-2.61 15.071h-2.389c-.085-3.028-.568-5.653-1.449-7.875-.881-2.223-1.959-3.46-3.232-3.715a22.343 22.343 0 0 0-2.31-.255 47.727 47.727 0 0 0-3.041-.085h-7.739l-4.247 24.497h5.207c1.235 0 2.364-.177 3.387-.531 1.021-.353 2.012-1.097 2.971-2.229.49-.595 1.038-1.557 1.645-2.888a23.557 23.557 0 0 0 1.454-4.246h2.388l-4.076 23.649h-2.388c.021-.34.047-.736.08-1.189.032-.452.048-.947.048-1.485 0-.793-.043-1.699-.127-2.718-.085-1.019-.245-1.783-.478-2.293-.574-1.159-1.317-1.925-2.23-2.292-.913-.367-1.995-.553-3.248-.553h-5.191l-3.658 21.102a8.072 8.072 0 0 0-.128 1.401c0 .622.096 1.167.287 1.634s.52.885.987 1.252c.339.227 1.008.467 2.006.722s1.815.411 2.452.467l-.51 2.803h-19.679l.509-2.803a70.89 70.89 0 0 0 2.548-.275c1.04-.127 1.751-.29 2.133-.487a3.984 3.984 0 0 0 1.688-1.678c.382-.722.658-1.577.828-2.568l7.611-43.898c.042-.283.08-.56.111-.829a6.99 6.99 0 0 0 .047-.827c0-.566-.079-1.055-.238-1.466-.159-.409-.494-.784-1.003-1.124-.467-.34-1.157-.651-2.07-.935-.913-.282-1.677-.467-2.292-.552l.509-2.802h35.437z"/><g fill="#FFD027"><path d="M187.982 60.319c0 1.811-.566 3.365-1.699 4.664-1.135 1.297-2.785 2.33-4.949 3.1-1.586.58-3.189 1.049-4.809 1.408s-3.41.658-5.371.896c0 2.695.498 4.754 1.496 6.176.998 1.424 2.459 2.137 4.387 2.137 1.705 0 3.209-.426 4.514-1.279 1.305-.852 2.588-2.123 3.85-3.811l1.457 1.074c-1.363 2.08-3.068 3.742-5.115 4.986-2.045 1.246-4.168 1.867-6.367 1.867-3.018 0-5.324-.844-6.918-2.533-1.596-1.689-2.393-4.088-2.393-7.193 0-2.15.338-4.203 1.012-6.158a17.813 17.813 0 0 1 2.953-5.363 14.615 14.615 0 0 1 4.643-3.84c1.832-.973 3.857-1.459 6.074-1.459 2.455 0 4.275.5 5.459 1.498 1.185 1 1.776 2.278 1.776 3.83zm-4.705-.629c0-.662-.094-1.186-.281-1.568s-.426-.668-.717-.855a2.394 2.394 0 0 0-.971-.383 7.097 7.097 0 0 0-1.049-.076c-2.047 0-3.936 1.123-5.666 3.369s-2.826 5.043-3.285 8.395a63.644 63.644 0 0 0 4.041-.727c1.5-.314 2.744-.727 3.734-1.238 1.414-.73 2.467-1.672 3.158-2.82.691-1.149 1.036-2.515 1.036-4.097zM196.223 81.591c-2.525 0-4.627-.449-6.305-1.344-1.68-.895-2.52-2.066-2.52-3.516 0-.682.246-1.322.742-1.92.494-.596 1.1-.895 1.814-.895.682 0 1.232.158 1.65.473.418.316.746.688.984 1.113.256.443.482.973.678 1.586s.361 1.117.498 1.51c.256.289.609.559 1.062.805.451.248 1.104.371 1.957.371 1.84 0 3.234-.461 4.182-1.385.945-.924 1.418-2.172 1.418-3.744 0-1.16-.443-2.088-1.33-2.779s-2.207-1.328-3.963-1.91c-.631-.205-1.373-.516-2.225-.936-.854-.418-1.535-.865-2.047-1.346a6.405 6.405 0 0 1-1.484-1.947c-.375-.75-.562-1.639-.562-2.664 0-2.188.977-4.078 2.93-5.676 1.951-1.598 4.352-2.396 7.199-2.396.664 0 1.381.035 2.148.102.768.068 1.611.256 2.531.564.801.271 1.484.678 2.047 1.215s.844 1.23.844 2.084c0 .699-.234 1.334-.703 1.904-.469.572-1.088.857-1.855.857-.631 0-1.15-.137-1.559-.41a3.295 3.295 0 0 1-1.023-1.1 7.305 7.305 0 0 1-.666-1.482 23.722 23.722 0 0 0-.562-1.561c-.324-.137-.613-.23-.869-.281s-.598-.076-1.023-.076c-1.67 0-2.938.449-3.797 1.346-.861.898-1.293 1.963-1.293 3.193 0 1.195.389 2.098 1.164 2.703.775.607 2.059 1.234 3.85 1.883 2.318.838 4.002 1.795 5.051 2.871s1.574 2.408 1.574 3.998c0 2.596-.998 4.711-2.994 6.342-1.995 1.631-4.51 2.448-7.543 2.448zM215.201 81.36c-1.621 0-2.805-.328-3.555-.984s-1.125-1.6-1.125-2.826c0-.393.025-.764.076-1.113s.119-.746.205-1.189l3.986-17.084h-4.576l.539-2.328h4.67l1.783-7.494h4.6l-1.729 7.494h7.119l-.535 2.328H219.6l-3.301 14.092a30.483 30.483 0 0 0-.383 1.879 9.355 9.355 0 0 0-.154 1.549c0 .938.234 1.623.703 2.059.471.434 1.318.652 2.547.652.443 0 1.064-.055 1.867-.166.801-.111 1.424-.252 1.867-.422l-.436 1.865a55.75 55.75 0 0 1-3.375 1.189c-1.058.333-2.302.499-3.734.499z"/><path d="M237.633 78.034l-.383 1.637c-1.57.633-2.822 1.07-3.76 1.318-.939.246-1.74.371-2.404.371-1.365 0-2.389-.355-3.07-1.062-.682-.709-1.021-1.584-1.021-2.625 0-.393.033-.803.102-1.229.068-.428.18-.965.332-1.613l2.703-10.881c.135-.598.268-1.238.395-1.922.129-.682.191-1.262.191-1.74 0-.955-.156-1.592-.473-1.906-.314-.316-.957-.475-1.926-.475-.375 0-.873.061-1.494.18s-1.094.221-1.416.307l.383-1.637c1.33-.598 2.521-1.041 3.578-1.33 1.057-.291 1.893-.436 2.506-.436 1.398 0 2.412.334 3.043.998.631.666.945 1.562.945 2.689 0 .307-.033.725-.102 1.254s-.172 1.059-.307 1.588l-2.719 10.881c-.17.666-.318 1.318-.445 1.959s-.189 1.166-.189 1.574c0 .973.217 1.639.65 1.998.432.357 1.135.537 2.104.537.322 0 .785-.043 1.389-.127.601-.085 1.066-.187 1.388-.308zm1.816-32.711c0 .973-.316 1.82-.947 2.545s-1.416 1.088-2.354 1.088c-.869 0-1.619-.346-2.25-1.037-.631-.689-.945-1.479-.945-2.365 0-.938.314-1.756.945-2.455s1.381-1.049 2.25-1.049c.973 0 1.766.328 2.379.984.616.656.922 1.42.922 2.289zM263.594 59.728c0 2.594-.393 5.227-1.176 7.898-.785 2.67-1.859 5.004-3.223 7-1.381 2.066-3.027 3.742-4.936 5.031-1.91 1.289-4.008 1.934-6.293 1.934-2.232 0-4.016-.619-5.346-1.857-1.328-1.236-1.994-2.896-1.994-4.98 0-.393.047-.836.141-1.33l.191-.998 2.227-8.193c.17-.666.318-1.318.447-1.959.127-.641.191-1.199.191-1.678 0-.955-.166-1.596-.498-1.92-.334-.324-.986-.486-1.957-.486-.357 0-.844.074-1.459.221-.613.146-1.074.26-1.381.342l.385-1.625c1.33-.592 2.512-1.049 3.543-1.371 1.033-.32 1.855-.482 2.471-.482 1.363 0 2.375.316 3.031.947.656.633.986 1.545.986 2.74 0 .342-.031.756-.09 1.242a12.18 12.18 0 0 1-.32 1.6l-2.461 9.551c-.17.648-.299 1.271-.383 1.869-.086.598-.129.98-.129 1.15 0 .889.141 1.609.422 2.164s.635.986 1.062 1.293c.408.291.855.496 1.342.615s.984.18 1.496.18c1.16 0 2.357-.367 3.594-1.102s2.314-1.689 3.236-2.867a16.766 16.766 0 0 0 2.43-4.289c.613-1.578.92-3.324.92-5.236 0-1.023-.141-1.812-.422-2.367s-.592-1.037-.934-1.447c-.342-.428-.652-.875-.934-1.344s-.422-1.131-.422-1.984c0-.973.324-1.715.973-2.229.646-.512 1.33-.768 2.045-.768 1.006 0 1.795.406 2.365 1.217.575.809.86 1.982.86 3.518zM280.891 77.442h-.18c-.375.309-.82.697-1.34 1.166s-1.129.916-1.828 1.344c-.664.426-1.387.797-2.17 1.113s-1.635.473-2.555.473c-2.469 0-4.406-.887-5.811-2.662s-2.107-4.197-2.107-7.27c0-2.117.393-4.174 1.176-6.17a18.37 18.37 0 0 1 3.246-5.377A15.491 15.491 0 0 1 274 56.387c1.805-.932 3.662-1.396 5.572-1.396 1.209 0 2.363.162 3.463.486 1.098.324 1.963.691 2.594 1.102l4.693-1.205.309.385-3.896 16.516a31.3 31.3 0 0 0-.422 1.934c-.146.758-.219 1.318-.219 1.676 0 .973.205 1.631.615 1.973.41.34 1.102.512 2.074.512.324 0 .787-.053 1.385-.154s1.059-.213 1.383-.332l-.385 1.637a130.702 130.702 0 0 1-3.434 1.33c-.752.271-1.666.408-2.742.408-1.23 0-2.205-.357-2.922-1.074s-1.109-1.633-1.177-2.743zm3.685-16.179c0-.562-.061-1.102-.18-1.613s-.367-.99-.742-1.434c-.342-.428-.811-.768-1.408-1.025-.596-.256-1.346-.383-2.25-.383-1.246 0-2.457.41-3.635 1.229-1.178.82-2.234 1.92-3.172 3.303-.887 1.299-1.613 2.869-2.176 4.713s-.844 3.713-.844 5.607c0 1.041.059 1.963.178 2.766.119.801.35 1.535.689 2.201a3.557 3.557 0 0 0 1.404 1.512c.613.357 1.387.537 2.322.537.953 0 1.953-.27 3-.807s2.225-1.48 3.535-2.83l3.279-13.776zM306.439 41.616l-7.15 30.793c-.154.646-.299 1.295-.436 1.943s-.205 1.176-.205 1.586c0 .971.217 1.637.65 1.994s1.137.537 2.107.537c.34 0 .846-.043 1.518-.127.674-.086 1.18-.188 1.52-.309l-.383 1.637c-1.535.615-2.715 1.049-3.543 1.305-.826.256-1.76.385-2.801.385-1.363 0-2.398-.355-3.107-1.062-.707-.709-1.061-1.582-1.061-2.623 0-.393.039-.803.115-1.229s.184-.965.32-1.613l6.232-26.949c.119-.529.201-.895.244-1.1.041-.205.062-.461.062-.768 0-.615-.102-1.088-.307-1.422a1.952 1.952 0 0 0-.873-.754c-.361-.154-.814-.256-1.363-.307a66.258 66.258 0 0 1-1.67-.18l.359-1.561 9.514-.562.258.386z"/></g><g fill="#FFF"><path d="M152.81 21.146v.925c-.708.021-1.129.048-1.262.079a.72.72 0 0 0-.284.116.355.355 0 0 0-.116.173c-.049.119-.084.348-.105.684a20.1 20.1 0 0 0-.031 1.03 527.514 527.514 0 0 0-.042 2.787v4.237l.032 1.925c0 .722.035 1.191.105 1.409a.427.427 0 0 0 .142.226.777.777 0 0 0 .315.126c.144.032.559.055 1.246.068v.926a99.9 99.9 0 0 0-3.659-.063c-1.129 0-2.135.021-3.018.063v-.926c.729-.027 1.149-.052 1.262-.073.147-.028.247-.066.3-.115a.323.323 0 0 0 .1-.169c.021-.084.049-.413.084-.988.056-.841.084-1.619.084-2.334v-4.396c0-1.396-.007-2.293-.021-2.692-.035-.89-.077-1.447-.126-1.672-.021-.091-.055-.161-.1-.21s-.13-.09-.252-.121-.566-.062-1.33-.09v-.925c.883.042 1.896.062 3.039.062 1.281.001 2.494-.02 3.637-.062zM155.185 34.964c.827-.042 1.3-.081 1.42-.116a.43.43 0 0 0 .194-.137c.053-.062.096-.192.131-.389.042-.267.091-.911.147-1.935.028-.582.042-1.339.042-2.271V26.74l-.042-3.06c-.007-.512-.028-.845-.063-.999a.752.752 0 0 0-.153-.342c-.066-.073-.177-.132-.331-.174s-.603-.087-1.346-.137v-.883c.89.042 1.546.062 1.966.062l1.524-.031.968-.031a202.393 202.393 0 0 0 5.247 6.52c1.479 1.773 2.706 3.161 3.681 4.164V29.4c0-3.771-.042-5.99-.126-6.657-.028-.259-.092-.427-.189-.504-.161-.127-.708-.196-1.641-.211v-.883c.855.042 1.641.062 2.355.062.694 0 1.588-.021 2.682-.062v.883c-.855.021-1.363.084-1.524.189a.267.267 0 0 0-.116.158c-.105.351-.174 1.151-.205 2.402s-.047 2.175-.047 2.771c0 4.662.045 7.491.137 8.486l-.137.095a60.87 60.87 0 0 0-1.799-.273c-2.264-2.53-5.475-6.33-9.632-11.398v5.236c0 1.087.021 2.219.063 3.396.028.813.07 1.308.126 1.482.028.084.075.152.142.205s.185.09.353.11c.456.057.788.085.999.085.042 0 .112-.004.211-.011v.852c-1.332-.014-2.09-.021-2.272-.021-.68 0-1.602.021-2.766.063v-.891zM173.955 35.857v-.894c.793-.057 1.262-.112 1.409-.169a.376.376 0 0 0 .2-.146.914.914 0 0 0 .126-.399c.049-.4.091-1.272.126-2.619.021-.651.031-1.773.031-3.364 0-1.424-.01-2.684-.031-3.78-.021-1.098-.066-1.751-.137-1.962a.46.46 0 0 0-.131-.226c-.061-.053-.174-.093-.342-.121a10.217 10.217 0 0 0-1.252-.137v-.894c1.444.042 2.439.062 2.986.062.723 0 1.447-.021 2.178-.062l.925 2.082.735 1.577 3.345 6.898a94.915 94.915 0 0 0 1.608-3.218l1.389-2.913c.771-1.626 1.242-2.627 1.414-3.002s.366-.851.584-1.425c.918.049 1.507.073 1.766.073l3.135-.073v.894h-.148c-.707-.007-1.156.075-1.346.247s-.283.503-.283.994c0 .582-.004 1.023-.011 1.324l-.053 2.955v3.691c0 .897.003 1.423.011 1.577.056.891.105 1.438.146 1.641.021.098.061.177.116.236s.137.105.241.137c.105.031.547.072 1.326.121v.894l-3.355-.063-3.28.063v-.894c.869-.028 1.365-.079 1.487-.152.123-.074.211-.24.264-.5.053-.259.078-1.129.078-2.607v-7.655l-2.439 4.932-1.167 2.45c-.309.645-.743 1.581-1.304 2.808a87.061 87.061 0 0 0-.811 1.798h-.715a89.476 89.476 0 0 0-1.094-2.419c-.812-1.752-1.43-3.06-1.85-3.922l-2.766-5.646v5.163c0 .862.012 1.888.037 3.075.023 1.188.05 1.861.078 2.02a.734.734 0 0 0 .131.342c.061.07.165.13.316.179.15.049.58.095 1.287.137v.894a45.05 45.05 0 0 0-2.407-.063 39.257 39.257 0 0 0-2.553.061zM196.262 35.857v-.873c.567-.042.906-.078 1.014-.11a.717.717 0 0 0 .279-.147c.077-.066.156-.171.236-.315.081-.144.321-.678.721-1.604.182-.435.533-1.293 1.051-2.576l2.745-6.771.925-2.388h1.494l4.7 10.979.651 1.44.422.968c.069.126.137.217.199.273a.629.629 0 0 0 .215.126c.081.028.286.053.615.073.105.015.26.032.463.053v.873l-2.923-.063-3.69.063v-.873c.848-.035 1.326-.082 1.435-.142s.163-.159.163-.3c0-.175-.08-.463-.242-.862l-.904-2.313h-5.404l-.463 1.262c-.351.968-.525 1.57-.525 1.809 0 .169.056.288.168.357.168.099.669.162 1.504.189v.873l-2.43-.063-2.419.062zm4.647-5.688c.659.021 1.405.031 2.239.031.807 0 1.529-.011 2.166-.031l-2.25-5.427-2.155 5.427zM214.275 34.964c.827-.042 1.301-.081 1.42-.116a.435.435 0 0 0 .194-.137c.053-.062.097-.192.132-.389.041-.267.091-.911.146-1.935a49.02 49.02 0 0 0 .043-2.271V26.74l-.043-3.06c-.007-.512-.027-.845-.062-.999s-.086-.269-.152-.342-.178-.132-.332-.174-.603-.087-1.346-.137v-.883c.891.042 1.546.062 1.967.062l1.524-.031.968-.031c1.443 1.886 3.193 4.059 5.247 6.52 1.479 1.773 2.706 3.161 3.681 4.164V29.4c0-3.771-.043-5.99-.127-6.657-.027-.259-.091-.427-.189-.504-.16-.127-.707-.196-1.64-.211v-.883c.854.042 1.64.062 2.355.062.694 0 1.587-.021 2.681-.062v.883c-.855.021-1.363.084-1.523.189a.263.263 0 0 0-.116.158c-.105.351-.174 1.151-.205 2.402a120.081 120.081 0 0 0-.048 2.771c0 4.662.046 7.491.137 8.486l-.137.095a60.799 60.799 0 0 0-1.798-.273c-2.265-2.53-5.476-6.33-9.632-11.398v5.236c0 1.087.021 2.219.062 3.396.028.813.07 1.308.127 1.482a.413.413 0 0 0 .142.205c.066.053.185.09.353.11.455.057.788.085.998.085.043 0 .113-.004.211-.011v.852a438.21 438.21 0 0 0-2.271-.021c-.68 0-1.602.021-2.766.063v-.891zM238.69 22.02v-.873l3.112.073 4.701-.095c.918 0 1.644.095 2.176.284.533.189.99.533 1.373 1.03.382.498.572 1.143.572 1.936 0 .792-.184 1.528-.551 2.208-.369.68-.943 1.239-1.725 1.677a5.052 5.052 0 0 1-2.508.657c-.225 0-.444-.012-.658-.036a5.715 5.715 0 0 1-.636-.111 4.397 4.397 0 0 0-.379-.746l.222-.231c.153.049.299.086.436.11s.262.037.373.037c.68 0 1.241-.24 1.684-.721.441-.479.662-1.179.662-2.098 0-.96-.231-1.683-.694-2.166s-1.108-.726-1.935-.726a7.16 7.16 0 0 0-1.314.137 28.129 28.129 0 0 0-.063 1.914l-.031 2.061v3.985c0 .981.014 1.998.042 3.05.021.609.06.995.115 1.156.028.07.076.132.143.185s.188.093.362.121l1.42.094v.926a188.91 188.91 0 0 0-4.049-.063c-.995 0-1.945.021-2.85.063v-.926c.778-.014 1.269-.073 1.472-.179a.353.353 0 0 0 .148-.157c.049-.099.087-.354.115-.768.076-1.122.115-2.369.115-3.744v-3.712l-.042-1.977a36.657 36.657 0 0 0-.047-1.588c-.018-.21-.052-.361-.101-.452-.027-.056-.075-.105-.142-.147s-.188-.08-.362-.115l-1.156-.073zM250.309 35.857v-.873c.568-.042.906-.078 1.016-.11a.72.72 0 0 0 .278-.147c.077-.066.155-.171.237-.315.08-.144.32-.678.72-1.604.183-.435.532-1.293 1.052-2.576l2.744-6.771.926-2.388h1.492l4.701 10.979.652 1.44.42.968c.07.126.137.217.2.273a.633.633 0 0 0 .216.126c.08.028.285.053.615.073.104.015.259.032.463.053v.873l-2.924-.063-3.691.063v-.873c.849-.035 1.327-.082 1.436-.142.109-.06.163-.159.163-.3 0-.175-.081-.463-.241-.862l-.904-2.313h-5.406l-.462 1.262c-.351.968-.526 1.57-.526 1.809 0 .169.057.288.169.357.168.099.669.162 1.503.189v.873l-2.429-.063-2.42.062zm4.648-5.688a71.1 71.1 0 0 0 2.24.031c.806 0 1.527-.011 2.166-.031l-2.25-5.427-2.156 5.427zM268.334 22.02v-.862c.16 0 .721.014 1.682.042.47.014 1.136.021 1.998.021.736 0 1.367-.014 1.893-.042a55.575 55.575 0 0 1 2.156-.053c1.1 0 1.924.079 2.471.237.547.157 1.014.485 1.398.982.386.498.578 1.104.578 1.819 0 .849-.262 1.619-.788 2.313s-1.335 1.244-2.429 1.651c.175.315.375.638.6.967.224.33.355.529.394.6s.079.137.121.2l1.63 2.45c.435.651.67 1.002.705 1.051.525.701.848 1.115.967 1.241s.234.214.348.263c.111.049.332.077.662.084v.873c-1.08-.028-1.861-.042-2.346-.042-.561 0-1.117.014-1.672.042a2.538 2.538 0 0 0-.252-.6l-2.25-3.712c-.645-1.065-1.191-1.903-1.641-2.513-.225-.309-.441-.54-.652-.694l.116-.347c.841.027 1.476-.059 1.903-.258.428-.2.789-.558 1.083-1.072a3.43 3.43 0 0 0 .441-1.73c0-.645-.154-1.181-.462-1.608a2.451 2.451 0 0 0-1.146-.895c-.295-.104-.82-.157-1.578-.157a5.94 5.94 0 0 0-.998.084c-.021.253-.043.82-.063 1.703a234.21 234.21 0 0 0-.063 3.976c0 1.052.011 2.166.031 3.344.029 1.444.05 2.265.064 2.461.021.393.059.648.115.768a.413.413 0 0 0 .137.152c.062.046.164.082.305.11s.547.049 1.22.062v.926a103.85 103.85 0 0 0-3.638-.063c-1.094 0-2.107.021-3.039.063v-.926c.799-.027 1.271-.066 1.419-.115a.327.327 0 0 0 .185-.105c.038-.049.068-.146.089-.294.049-.273.084-.688.105-1.241l.084-3.07v-3.901l-.042-2.219c-.014-.876-.057-1.402-.127-1.577a.392.392 0 0 0-.157-.179c-.169-.084-.688-.155-1.557-.21zM300.451 34.942v.915a97.464 97.464 0 0 0-2.629-.042c-.568 0-1.115.014-1.641.042-.176-.357-.449-.757-.82-1.199l-2.051-2.355c-1.549-1.829-2.373-2.793-2.471-2.892-.26-.287-.463-.466-.61-.536a.591.591 0 0 0-.252-.073.259.259 0 0 0-.147.042.151.151 0 0 0-.068.073c-.01.028-.016.109-.016.242v2.366l.031 2.082c.008.554.053.897.137 1.03.049.077.144.141.284.189.14.049.599.088 1.378.115v.915a99.895 99.895 0 0 0-3.639-.063c-1.136 0-2.148.021-3.039.063v-.915c.729-.035 1.199-.084 1.409-.147a.43.43 0 0 0 .194-.137.698.698 0 0 0 .126-.289c.032-.129.058-.408.079-.836.062-1.037.095-1.787.095-2.25v-3.817l-.073-3.26c-.015-.799-.046-1.328-.096-1.588-.035-.154-.074-.256-.12-.305s-.118-.088-.216-.115c-.154-.042-.621-.085-1.398-.127v-.925c.891.042 1.906.062 3.049.062 1.276 0 2.486-.021 3.629-.062v.925c-.814.021-1.309.077-1.483.169-.104.062-.179.196-.221.399-.084.456-.126 1.321-.126 2.597v2.902l.168.074c.659-.526 1.563-1.381 2.713-2.566l1.494-1.524c.482-.498.823-.855 1.02-1.072l.926-1.083a8.803 8.803 0 0 0-.032-.82c.708.014 1.185.021 1.431.021l2.471-.021v.852c-.652.014-1.125.064-1.42.152-.294.088-.658.304-1.094.646-.435.344-1.324 1.122-2.67 2.335l-1.998 1.998c.336.42.837 1.02 1.504 1.798l2.303 2.702c1.064 1.248 1.787 2.075 2.166 2.482.379.406.655.646.83.72.174.075.472.111.893.111z"/></g><g fill="#FFF"><path d="M169.335 99.979l.21.473c-.155.139-.391.381-.707.725s-.543.602-.678.775a4.071 4.071 0 0 1-.855.115c-.416 0-.801-.062-1.153-.188-.508-.174-1.034-.461-1.581-.863a4.928 4.928 0 0 1-1.41.795c-.495.176-1.055.264-1.679.264-1.111 0-1.955-.301-2.53-.902s-.863-1.281-.863-2.041c0-.557.141-1.041.421-1.457.387-.57 1.024-1.066 1.914-1.486a6.366 6.366 0 0 1-.384-1.066 3.854 3.854 0 0 1-.109-.914c0-.42.082-.725.247-.914l.696-.805c.323-.377.543-.596.659-.66a2.673 2.673 0 0 1 1.276-.326c.329 0 .624.066.885.197.261.129.459.32.595.572.135.252.203.529.203.834 0 .436-.152.875-.457 1.322s-.94.973-1.907 1.578c.444.672.944 1.312 1.497 1.924a11.672 11.672 0 0 0 1.6 1.498 3.62 3.62 0 0 0 .354-.736c.073-.219.109-.441.109-.662 0-.174-.024-.361-.072-.562a1.796 1.796 0 0 0-.211-.525H164.1l-.065-.088c.102-.158.177-.285.225-.377l.246-.537c.938.025 1.487.037 1.646.037 1.314 0 2.325-.039 3.031-.115l.064.057a6.082 6.082 0 0 0-.199.625 3.576 3.576 0 0 0-.062.434l-.065.08a24.982 24.982 0 0 0-1.022-.072 37.66 37.66 0 0 0-1.102-.029c.048.232.072.436.072.609 0 .363-.071.713-.214 1.051-.143.34-.402.74-.779 1.205.328.23.7.41 1.116.535.416.127.81.189 1.183.189.11 0 .202-.012.275-.033.072-.021.156-.061.254-.119l.631-.417zm-8.622-3.175c-.256.154-.46.355-.612.598a1.57 1.57 0 0 0-.229.846c0 .475.129.934.388 1.381s.59.793.993 1.037c.404.244.818.367 1.244.367.488 0 .972-.156 1.45-.465a15.443 15.443 0 0 1-1.787-1.74 15.6 15.6 0 0 1-1.447-2.024zm1.102-1.407c.469-.328.813-.648 1.033-.961s.33-.641.33-.99c0-.309-.087-.557-.262-.742a.857.857 0 0 0-.652-.279c-.275 0-.506.1-.692.297-.187.199-.279.465-.279.797 0 .527.174 1.154.522 1.878zM176.954 101.821v-.594c.58-.02.925-.059 1.033-.117a.452.452 0 0 0 .222-.289c.053-.207.079-.834.079-1.879V94.6c0-1.186-.007-1.848-.021-1.988h-1.037c-.521 0-.981.018-1.378.051-.159.016-.251.035-.275.059-.033.029-.062.113-.087.254a7.205 7.205 0 0 0-.108 1.139h-.602c-.02-.99-.032-1.549-.037-1.676a9.743 9.743 0 0 0-.072-.688l.065-.074c.228.025.469.043.725.051.416.016 1.216.023 2.4.023h2.93c1.218 0 2.032-.008 2.443-.023.223-.008.447-.025.675-.051l.072.074a7.65 7.65 0 0 0-.08.775c-.005.039-.015.568-.029 1.588h-.602a8.544 8.544 0 0 0-.094-1.08c-.029-.174-.061-.279-.095-.312-.029-.023-.106-.041-.231-.051a14.869 14.869 0 0 0-1.429-.059h-1.037c-.015.17-.021.832-.021 1.988v4.342c0 1.045.026 1.674.079 1.887.034.125.106.219.218.279s.457.1 1.037.119v.594a53.116 53.116 0 0 0-2.371-.064c-.687 0-1.477.021-2.372.064zM185.328 96.87c0-.885.134-1.656.402-2.314.269-.656.651-1.215 1.149-1.674s1.039-.791 1.624-.994a7.534 7.534 0 0 1 2.451-.385c.88 0 1.677.123 2.393.371.531.188 1.002.459 1.41.814s.719.721.932 1.092c.213.373.374.781.482 1.225.108.445.163.936.163 1.473a6.69 6.69 0 0 1-.472 2.531 4.575 4.575 0 0 1-1.019 1.545 4.728 4.728 0 0 1-1.526 1.035c-.783.324-1.677.486-2.683.486-1.088 0-2.021-.197-2.803-.59a4.364 4.364 0 0 1-1.838-1.744c-.442-.769-.665-1.726-.665-2.871zm2.234-.428c0 1.125.154 2.057.464 2.795.31.736.706 1.258 1.189 1.562s1.054.457 1.711.457c.609 0 1.154-.146 1.635-.436.481-.291.858-.781 1.132-1.473.272-.691.409-1.529.409-2.516 0-.676-.073-1.295-.221-1.855s-.359-1.039-.635-1.434a2.936 2.936 0 0 0-.976-.902c-.374-.207-.871-.311-1.489-.311-.706 0-1.307.164-1.803.496-.495.33-.855.82-1.08 1.469a6.544 6.544 0 0 0-.336 2.148zM197.507 92.28v-.604l2.357.045.979-.016.979-.021.269-.008v.604c-.522 0-.854.045-.993.137-.072.043-.121.129-.146.254-.067.301-.102.959-.102 1.98v1.682l.008.848c0 .885.01 1.432.028 1.639.044.455.157.82.341 1.1.184.277.466.502.845.674.38.172.862.258 1.447.258.672 0 1.207-.115 1.605-.346.399-.229.683-.527.853-.895.169-.367.254-1.066.254-2.096v-1.479c0-1.277-.003-2.055-.008-2.336-.015-.609-.048-.977-.102-1.102a.337.337 0 0 0-.167-.174c-.159-.082-.507-.131-1.044-.145v-.604c.875.035 1.395.051 1.56.051.043 0 .108-.002.195-.006l1.609-.045v.604c-.449 0-.731.035-.848.107-.059.039-.105.113-.142.223-.036.107-.071.598-.105 1.467a58.196 58.196 0 0 0-.051 2.061v1.703c0 .436-.031.885-.094 1.35-.063.463-.19.859-.381 1.188a3.05 3.05 0 0 1-.809.893 3.647 3.647 0 0 1-1.24.602c-.479.135-1.031.203-1.66.203a6.96 6.96 0 0 1-2.06-.297c-.464-.145-.843-.34-1.138-.584a2.635 2.635 0 0 1-.957-1.693c-.024-.174-.037-.643-.037-1.406l.008-1.393V94.86c0-.676-.015-1.285-.044-1.826-.014-.213-.043-.367-.087-.465a.574.574 0 0 0-.181-.188l-.941-.101zM209.862 92.28v-.596c.111 0 .498.01 1.16.029.323.01.783.014 1.378.014.507 0 .942-.008 1.305-.027.6-.025 1.095-.037 1.486-.037.759 0 1.327.055 1.704.164.377.107.698.334.965.678.266.342.398.76.398 1.254 0 .584-.182 1.117-.544 1.596s-.921.857-1.675 1.139c.121.217.259.439.413.666a7.882 7.882 0 0 1 .355.551l1.124 1.689.485.727c.363.482.585.768.667.855a.788.788 0 0 0 .239.18c.078.035.23.055.457.059v.602a66.455 66.455 0 0 0-1.617-.029c-.387 0-.771.01-1.152.029a1.72 1.72 0 0 0-.174-.412l-1.552-2.561a23.927 23.927 0 0 0-1.132-1.732 2.15 2.15 0 0 0-.449-.479l.08-.24c.58.02 1.018-.039 1.312-.178.295-.137.544-.383.746-.738.203-.355.305-.754.305-1.193 0-.445-.106-.814-.318-1.109a1.694 1.694 0 0 0-.791-.617c-.203-.072-.565-.107-1.087-.107-.232 0-.462.02-.689.057-.015.174-.029.566-.043 1.176a162.898 162.898 0 0 0-.044 2.74c0 .725.008 1.494.021 2.307a66.2 66.2 0 0 0 .044 1.695c.015.271.041.447.08.529a.289.289 0 0 0 .094.105c.044.031.113.057.21.076s.378.035.842.045v.637a71.589 71.589 0 0 0-2.509-.043c-.755 0-1.453.014-2.096.043v-.637c.551-.02.877-.047.979-.08a.232.232 0 0 0 .127-.072.487.487 0 0 0 .062-.203c.034-.189.059-.475.073-.855l.058-2.117v-2.691l-.029-1.529c-.01-.605-.038-.967-.087-1.088a.276.276 0 0 0-.108-.123c-.116-.063-.473-.112-1.073-.149zM225.205 98.399c0-.822.14-1.502.42-2.041s.701-.945 1.262-1.219 1.214-.41 1.958-.41c1.116 0 1.966.293 2.549.879.582.584.873 1.441.873 2.574 0 .652-.084 1.217-.253 1.695-.17.479-.396.865-.682 1.156a3.168 3.168 0 0 1-.899.664c-.536.252-1.141.377-1.812.377-1.093 0-1.936-.311-2.527-.932s-.889-1.534-.889-2.743zm2.008-.347c0 1.285.188 2.201.565 2.748.252.361.609.543 1.073.543.396 0 .711-.137.943-.412.309-.367.464-1.078.464-2.133 0-.74-.062-1.373-.186-1.902-.123-.529-.304-.898-.543-1.107a1.28 1.28 0 0 0-.867-.311c-.29 0-.544.076-.761.229-.218.152-.387.408-.508.768-.12.36-.18.885-.18 1.577zM233.674 101.821v-.551c.57-.039.908-.092 1.015-.16.082-.053.131-.148.146-.289.033-.252.055-1.039.064-2.363v-2.176l-.202-.008-.986.043v-.354c.643-.334.977-.512 1-.529a.206.206 0 0 0 .095-.176c0-.227.011-.508.032-.844.022-.336.055-.574.099-.715.043-.141.113-.275.21-.406.159-.213.512-.555 1.059-1.029l.877-.783c.141-.121.303-.217.486-.285.184-.07.392-.105.623-.105.237 0 .491.043.762.131a8.742 8.742 0 0 0-.102 1.449l-.29.131c-.145-.135-.28-.229-.406-.279s-.285-.076-.479-.076c-.28 0-.503.053-.667.16a.548.548 0 0 0-.232.311c-.058.193-.087.678-.087 1.451v1.008l.856-.008c.415-.01.775-.025 1.08-.051l.094.072a2.605 2.605 0 0 0-.058.254l-.116.646-.732-.016c-.213-.01-.333-.014-.362-.014-.087 0-.341.006-.762.021v2.312c0 .518.007 1.012.019 1.48s.032.75.062.848a.383.383 0 0 0 .112.166.515.515 0 0 0 .25.096c.029.004.358.031.986.078v.559l-2.473-.035c-.306.001-.963.013-1.973.036zM244.02 101.821v-.637c.459-.01.74-.025.841-.045a.593.593 0 0 0 .226-.082.302.302 0 0 0 .102-.156c.048-.145.074-.48.079-1.008l.029-1.443v-3.395l-.029-1.428c-.005-.537-.031-.877-.079-1.021a.294.294 0 0 0-.099-.156c-.046-.037-.119-.066-.221-.088s-.385-.037-.849-.047v-.639c.793.029 1.629.045 2.509.045.788 0 1.486-.016 2.096-.045v.639c-.518.02-.822.041-.914.062s-.156.057-.195.105c-.039.047-.067.217-.087.506-.044.494-.065 1.205-.065 2.133v.834c.348.029 1.078.043 2.189.043 1.402 0 2.268-.014 2.597-.043v-.834c0-.75-.005-1.23-.015-1.443-.039-.643-.068-1.006-.087-1.088a.29.29 0 0 0-.069-.133c-.031-.033-.09-.059-.174-.08-.085-.021-.388-.043-.91-.062v-.639c.609.029 1.308.045 2.096.045.88 0 1.716-.016 2.509-.045v.639c-.459.01-.739.025-.841.043a.59.59 0 0 0-.226.084.287.287 0 0 0-.101.156c-.049.15-.075.486-.08 1.008l-.029 1.449v3.395l.029 1.422c.005.541.029.881.072 1.021.024.068.06.121.105.16s.119.066.221.086.385.035.849.045v.637a68.809 68.809 0 0 0-2.509-.043c-.788 0-1.486.014-2.096.043v-.637c.518-.02.822-.041.914-.062s.156-.057.195-.105.067-.217.087-.508a28.99 28.99 0 0 0 .059-2.131v-1.516c-.242-.033-.945-.051-2.11-.051-1.117 0-1.861.004-2.233.014a4.937 4.937 0 0 0-.442.037v1.516c0 .754.008 1.234.021 1.443.039.643.068 1.008.087 1.094.015.053.038.096.069.127s.09.059.174.08c.085.021.388.043.91.062v.637a44.673 44.673 0 0 0-2.096-.043c-.881 0-1.717.014-2.509.043zM256.865 96.87c0-.885.134-1.656.402-2.314.269-.656.651-1.215 1.149-1.674s1.039-.791 1.624-.994a7.534 7.534 0 0 1 2.451-.385c.88 0 1.677.123 2.393.371.531.188 1.002.459 1.41.814s.719.721.932 1.092c.213.373.374.781.482 1.225.108.445.163.936.163 1.473a6.69 6.69 0 0 1-.472 2.531 4.575 4.575 0 0 1-1.019 1.545 4.728 4.728 0 0 1-1.526 1.035c-.783.324-1.677.486-2.683.486-1.088 0-2.021-.197-2.803-.59a4.364 4.364 0 0 1-1.838-1.744c-.442-.769-.665-1.726-.665-2.871zm2.234-.428c0 1.125.154 2.057.464 2.795.31.736.706 1.258 1.189 1.562s1.054.457 1.711.457c.609 0 1.154-.146 1.635-.436.481-.291.858-.781 1.132-1.473.272-.691.409-1.529.409-2.516 0-.676-.073-1.295-.221-1.855s-.359-1.039-.635-1.434a2.936 2.936 0 0 0-.976-.902c-.374-.207-.871-.311-1.489-.311-.706 0-1.307.164-1.803.496-.495.33-.855.82-1.08 1.469a6.544 6.544 0 0 0-.336 2.148zM269.213 101.821v-.615c.546-.039.87-.078.972-.117a.268.268 0 0 0 .138-.102.622.622 0 0 0 .087-.275c.033-.275.062-.877.087-1.805.015-.449.021-1.223.021-2.32 0-.982-.007-1.85-.021-2.607-.015-.756-.046-1.207-.095-1.352-.02-.068-.05-.119-.091-.156s-.119-.064-.235-.084a6.961 6.961 0 0 0-.862-.094v-.617c.995.029 1.682.045 2.059.045.498 0 .998-.016 1.501-.045l.639 1.438.507 1.086 2.307 4.758c.492-.953.862-1.691 1.109-2.219l.957-2.01c.531-1.121.856-1.811.975-2.068.119-.26.253-.588.402-.984.634.035 1.04.051 1.219.051l2.161-.051v.617h-.102c-.488-.004-.798.053-.929.17-.13.119-.195.348-.195.686 0 .402-.003.705-.008.914l-.036 2.037v2.545c0 .619.003.982.008 1.088.038.613.072.99.102 1.131.014.068.04.123.079.164s.095.072.167.094.377.049.914.084v.615l-2.313-.043-2.263.043v-.615c.6-.02.941-.055 1.026-.105s.145-.166.182-.344c.036-.18.054-.779.054-1.799v-5.279l-1.682 3.4-.805 1.689c-.213.445-.513 1.09-.899 1.938-.237.512-.423.926-.559 1.238h-.493a63.49 63.49 0 0 0-.754-1.668 174.138 174.138 0 0 0-1.276-2.703l-1.907-3.895v3.561c0 .594.009 1.301.025 2.121.018.818.035 1.283.055 1.393.02.107.05.188.091.234a.46.46 0 0 0 .218.123c.104.035.399.066.888.096v.615a31.042 31.042 0 0 0-1.66-.043 26.762 26.762 0 0 0-1.765.041zM285.07 101.821v-.391c.29-.135.527-.275.711-.422.029-.203.053-.531.072-.984a43.84 43.84 0 0 0 .059-1.814v-3.262c0-.127-.008-.598-.022-1.414-.015-.547-.048-.881-.102-1a.229.229 0 0 0-.108-.109c-.131-.059-.479-.102-1.044-.131v-.617l1.682.037c.334.006.653.008.957.008.663 0 1.4-.008 2.212-.021l1.472-.037c.175 0 .527.01 1.059.029.049 0 .129.014.239.043l.051.094-.138 1.045-.072 1.045h-.565c-.01-.57-.031-.922-.065-1.053a.278.278 0 0 0-.087-.145c-.062-.043-.256-.082-.58-.115-.479-.055-.947-.08-1.406-.08-.431 0-.87.018-1.32.051a17.61 17.61 0 0 0-.102 2.08v1.486c.329.025.672.037 1.03.037.11 0 .512-.01 1.203-.029.261-.004.415-.021.461-.051s.08-.08.104-.152c.059-.184.092-.49.102-.92h.588l-.029 1.594.029 1.588h-.624c.005-.561-.031-.906-.108-1.035-.059-.098-.162-.158-.312-.182a8.455 8.455 0 0 0-1.284-.08c-.469 0-.855.014-1.16.043v3.074c0 .344.008.639.022.885.391.029.855.043 1.392.043.522 0 1.005-.016 1.446-.051.442-.033.715-.082.816-.145.033-.02.065-.062.094-.131.087-.23.179-.672.275-1.318h.595c-.106.957-.159 1.744-.159 2.363l-.095.094c-.309.035-.749.051-1.319.051l-1.167-.021a232.931 232.931 0 0 0-2.379-.021c-.118-.002-.925.012-2.424.041zM301.126 94.331h-.609c-.01-.561-.033-.957-.072-1.189-.149-.211-.409-.4-.779-.564s-.784-.246-1.243-.246c-.658 0-1.167.164-1.526.496-.36.33-.54.719-.54 1.164.004.318.058.578.159.775.102.199.246.355.435.471.188.117.467.223.834.32.28.057.671.129 1.171.217.501.088.826.148.976.182.392.102.708.223.95.365.241.143.434.309.576.494s.26.42.352.703.138.6.138.953c0 .619-.128 1.162-.384 1.631a3.44 3.44 0 0 1-.806.969 3.777 3.777 0 0 1-1.059.656c-.58.232-1.275.348-2.088.348-.595 0-1.124-.055-1.588-.166s-.975-.303-1.53-.572c.15-.553.228-1.391.232-2.518h.609c-.01.348.017.781.079 1.299.184.299.498.562.943.789.444.229.93.342 1.457.342.459 0 .869-.08 1.229-.242.36-.162.621-.387.783-.672s.243-.609.243-.971c0-.305-.057-.566-.17-.783a1.247 1.247 0 0 0-.533-.523c-.242-.129-.667-.266-1.276-.404-.875-.184-1.45-.318-1.726-.4-.416-.125-.751-.307-1.004-.543a2.204 2.204 0 0 1-.569-.859 3.06 3.06 0 0 1-.188-1.084c0-.541.113-1.041.341-1.498.227-.457.526-.811.898-1.062.372-.25.793-.43 1.262-.539s.95-.164 1.443-.164c.512 0 1.009.047 1.49.139.48.092.897.225 1.251.398l.058.174a8.674 8.674 0 0 0-.148.926c-.034.297-.056.696-.071 1.188z"/></g></svg>