<svg xmlns="http://www.w3.org/2000/svg" xmlns:xlink="http://www.w3.org/1999/xlink" width="677.023" height="268.769" viewBox="0 0 677.023 268.769"><defs><path id="a" d="M0 0h677.023v268.769H0z"/></defs><clipPath id="b"><use xlink:href="#a" overflow="visible"/></clipPath><path clip-path="url(#b)" d="M406.019 134.456c0 10.926-14.235 18.116-34.938 23.867-1.006 2.443-2.012 7.043-2.012 12.794 0 4.889 3.022 8.196 6.901 8.196 5.178 0 8.769-2.876 15.097-8.338 1.294 0 2.156 1.149 1.868 2.441-8.77 10.783-16.965 13.083-23.004 13.083-8.624 0-11.643-8.051-11.643-15.094 0-9.059 5.747-26.599 21.42-38.675 7.476-5.751 13.085-6.901 17.254-6.901 5.751.001 9.057 4.89 9.057 8.627m-22.86 2.731c-5.606 6.039-8.913 12.651-10.64 16.822 9.49-2.876 13.946-5.607 19.264-10.639 4.457-4.17 5.611-8.483 5.611-9.779 0-1.437-.721-3.306-3.311-3.306-2.011.001-5.75 1.295-10.924 6.902M296.068 183.615l20.45-63.115c.493-1.805.167-2.296-2.46-2.625-1.803-.165-8.04-.493-14.766-.493-11.81.328-22.146 3.282-28.216 7.055-8.533 5.25-11.65 11.976-11.65 17.389-.163 4.43 2.46 6.399 5.25 7.711 2.46 1.148 2.627 2.954 2.627 5.415 0 3.607-3.116 6.89-7.546 6.89-4.76 0-10.173-5.087-10.01-13.124.167-7.712 4.923-19.195 16.569-26.906 14.93-10.008 30.189-10.828 42.985-10.828 6.89 0 12.797.328 26.576 1.642 12.959 1.148 21.329 1.803 28.545 1.803 8.204 0 9.843-1.803 11.487-4.757 1.31 0 3.117.492 3.117 2.625-4.431 6.89-12.308 9.68-21.987 9.68-4.756 0-9.023-.165-14.929-.985-4.92-.657-9.186-1.313-10.826-1.477-1.64-.163-2.297.164-3.447 3.773l-13.286 41.179h18.046c8.693 0 12.14-1.147 15.75-7.875l2.134-4.266c.982-1.149 4.1-.984 4.263.328-1.147 2.953-3.443 8.368-5.413 14.601-2.134 6.07-3.773 12.305-4.757 16.078-.986 1.148-2.953.985-4.104-.163l.657-6.07c.493-5.577-2.297-7.383-9.843-7.383h-18.373l-4.373 13.898c-2.396 9.04-9.997 30.027-12.881 36.907-5.869 14.001-13.576 23.071-26.227 25.302-3.085-1.294-2.701-4.205-1.906-6.101 5.268-.586 8.87-1.864 13.844-13.729 4.375-10.437 8.503-22.94 14.7-42.379M439.795 134.025c0 2.3-1.435 3.881-2.585 4.456-1.006.289-1.871 0-2.732-1.15-2.445-2.443-4.312-4.6-8.77-4.6-4.172 0-5.895 3.594-5.895 5.75 0 3.02.718 6.04 4.889 13.083 3.591 6.04 5.747 9.632 5.463 15.96-.145 3.882-2.156 9.202-7.478 13.802-3.739 3.308-9.058 5.174-14.521 5.174-5.462 0-8.769-4.312-8.769-7.617 0-1.439.573-3.021 2.156-4.745 1.15-1.007 2.729-1.007 3.879 0 1.871 2.155 6.185 5.751 9.924 5.751 3.449 0 6.9-3.596 6.9-8.196 0-2.444-1.727-6.901-5.321-12.652-3.735-6.037-5.03-10.926-5.03-13.369 0-5.608 2.44-9.777 8.625-15.097 4.171-3.594 8.771-4.744 10.64-4.744 5.319-.001 8.625 4.599 8.625 8.194M466.39 134.742l-12.94 37.813c-.861 2.732-.145 3.593 1.006 3.593 2.156 0 11.646-7.474 16.391-12.938 1.435 0 2.301.863 2.012 2.587-8.051 11.934-21.563 20.703-27.604 20.703-2.013 0-3.884-2.156-3.884-3.882 0-1.869.577-3.881 2.017-8.193l13.513-39.683h-11.213c-.289-1.437.14-3.451 1.579-4.024l11.502-2.013 8.051-14.233c1.439-.864 4.312-.575 5.462.861l-4.168 14.091h15.67c1.011 1.437.145 4.312-1.723 5.318H466.39zM497.292 137.761c.718-1.581.718-2.73-.288-2.73s-4.745 1.725-11.935 7.621c-1.294-.146-2.156-1.295-1.867-2.445 7.907-9.057 18.976-14.377 23.721-14.377 1.005 0 1.728.862 2.301 1.439.864.861.864 2.156-.862 6.324l-17.108 40.833c-.577 1.437-.721 3.162.434 3.162 2.439 0 10.062-5.032 14.947-10.64 1.439.144 2.16 1.149 2.16 2.443-2.16 4.171-16.968 17.109-26.887 17.109-.717 0-1.583-.431-2.3-1.293-.862-1.008-1.295-2.3-.577-3.881l18.261-43.565zm18.403-40.974c0 4.458-3.166 9.059-7.622 9.059-3.739 0-5.174-2.875-5.174-5.464 0-3.162 2.155-9.057 7.763-9.057 3.306 0 5.033 2.3 5.033 5.462M531.072 138.337c.862-2.731.862-4.168-1.006-4.168-2.732 0-8.913 5.174-13.373 10.063-1.291 0-2.3-1.294-2.156-2.444 4.602-6.469 14.235-15.958 22.72-15.958 3.306 0 6.611 4.17 4.456 9.49l-12.363 32.06c-.722 2.012-1.439 4.887-1.439 6.757 0 2.443 1.15 5.175 4.168 5.175 3.307 0 9.201-3.306 15.674-10.638 8.336-9.49 12.363-20.703 12.363-27.462 0-3.45-.289-6.901-1.295-10.208.289-3.02 2.589-5.176 5.319-5.176 4.6 0 5.605 5.32 5.605 8.913 0 10.496-10.779 30.913-23.147 41.264-10.924 9.057-18.977 10.494-22.426 10.494-3.739 0-6.613-4.312-6.613-8.624 0-3.164 1.435-8.196 3.595-13.803l9.918-25.735zM618.186 122.523c2.445-1.15 6.181.287 7.045 2.156-2.158 5.32-14.667 37.094-19.268 50.177-.862 2.443-.141 3.307 1.006 3.307 2.445 0 6.616-2.444 14.812-9.633 1.006 0 2.012.718 2.012 1.868-6.04 8.051-16.247 16.103-24.154 16.103-3.306 0-4.172-2.731-4.172-3.882 0-1.006.289-2.301 1.439-5.606l4.744-12.939-.429-.144c-10.211 12.652-24.875 22.571-31.632 22.571-4.027 0-6.328-4.024-6.328-8.052 0-3.307 3.166-14.808 12.656-27.891 6.9-9.488 13.081-15.239 18.976-18.547 5.607-3.162 9.202-4.17 12.941-4.17 1.579 0 2.588.433 3.45.864.572.286 2.155 1.581 2.874 3.019l4.028-9.201zm-25.019 16.39c-9.201 8.194-17.97 27.028-17.97 37.235 0 1.729.861 2.733 2.155 2.733 1.439 0 5.751-1.869 13.946-9.345 10.929-10.207 16.964-22.573 19.265-31.056-1.006-2.73-3.45-5.176-7.186-5.176-3.449.001-5.75 1.582-10.21 5.609M636.148 175.143c-1.15 3.306-1.006 4.744.573 4.744 3.162 0 9.923-7.045 16.534-14.521 1.436-.143 2.302.575 2.302 2.013-3.739 7.188-12.796 19.12-24.731 19.12-4.312 0-5.606-2.011-5.606-4.312s.722-4.89 3.163-12.222l14.724-43.849c3.447-10.065 2.012-11.501-.145-12.509l-2.589-1.15c-.721-.576-.721-1.87 0-2.301 2.589-1.006 11.502-3.737 18.115-4.312l.721.862c-1.872 5.175-3.31 9.201-8.483 24.728l-14.578 43.709zM300.111 90.517c0 4.625.295 4.97 2.559 5.364l1.378.246c.394.295.344 1.427-.05 1.722a199.12 199.12 0 0 0-7.381-.147c-2.362 0-4.822.049-7.48.147-.394-.295-.394-1.427 0-1.722l1.378-.246c2.263-.394 2.559-.739 2.559-5.364V72.408c0-4.626-.296-4.97-2.559-5.364l-1.378-.246c-.394-.295-.394-1.427 0-1.722 2.658.098 5.118.147 7.48.147 2.313 0 4.773-.049 7.431-.147.394.295.394 1.427 0 1.722l-1.378.246c-2.264.394-2.559.738-2.559 5.364v18.109zM347.644 89.336c0 3.199 0 6.299.1 7.923-.346.59-1.724 1.132-2.904 1.132-.049 0-1.673-2.51-3.986-5.364l-11.367-14.074c-2.805-3.543-4.478-5.561-5.364-6.299-.246.492-.246 1.328-.246 3.149v9.547c0 3.986.197 7.677.738 9.006.443 1.033 1.575 1.328 2.854 1.574l1.378.197c.394.394.296 1.427 0 1.722-2.657-.098-4.626-.147-6.594-.147-1.821 0-3.642.049-5.511.147-.296-.295-.394-1.328 0-1.722l.836-.147c1.329-.296 2.264-.591 2.707-1.624.492-1.329.689-5.02.689-9.006V72.851c0-2.706 0-3.494-.345-4.183-.344-.836-1.083-1.329-2.805-1.673l-1.378-.197c-.344-.394-.295-1.575.197-1.722 2.313.098 4.773.147 6.791.147 1.673 0 3.1-.049 4.134-.147.492 2.214 3.69 5.954 8.119 11.219l4.134 4.872c2.214 2.559 3.593 4.281 4.725 5.413.196-.492.196-1.328.196-2.214v-6.791c0-3.986-.196-7.676-.738-9.006-.442-1.033-1.525-1.328-2.854-1.574l-1.328-.197c-.394-.394-.296-1.427 0-1.722 2.657.098 4.576.147 6.595.147 1.82 0 3.592-.049 5.511-.147.296.295.394 1.328 0 1.722l-.885.148c-1.28.295-2.214.59-2.658 1.623-.541 1.33-.738 5.02-.738 9.006v11.761zM362.893 66.798c-.394-.394-.394-1.575.147-1.722 1.674.098 3.791.147 6.202.147 1.624 0 3.05 0 4.821-.147 0 3.051 1.724 6.053 3.889 10.679l3.248 6.938c.49.984 1.967 3.789 2.656 5.019.641-1.181 1.428-2.706 2.756-5.61l2.51-5.413c2.412-5.068 3.444-7.381 4.526-11.613 2.265.197 3.79.147 5.266.147 1.625 0 3.888-.049 5.66-.147.541.295.541 1.23.146 1.722l-1.427.246c-2.018.394-3.002.935-3.002 3.544 0 10.136.099 15.451.394 21.651.1 2.264.296 3.396 2.215 3.691l1.574.197c.395.394.395 1.525-.098 1.722-2.264-.098-4.38-.147-6.791-.147-2.214 0-4.921.049-7.283.147-.591-.246-.639-1.378-.146-1.722l1.475-.197c2.264-.443 2.264-.885 2.264-3.887l-.098-12.795v-5.61h-.098c-3.643 7.874-7.578 16.092-10.827 24.408-.246.197-.59.345-.984.345-.442 0-.984-.099-1.279-.296-1.919-6.102-7.775-18.059-10.53-24.457h-.099c-.196 3.199-.296 5.118-.345 7.677-.05 3.199-.098 8.12-.098 11.072 0 2.461.294 3.1 2.263 3.445l1.919.295c.394.344.296 1.476-.098 1.722a113.427 113.427 0 0 0-5.808-.147c-1.573 0-3.592.049-5.561.147-.64-.197-.64-1.476-.196-1.722l.886-.147c2.511-.493 2.657-.739 2.952-3.789.246-2.412.492-6.693.787-11.368.197-3.297.345-7.283.345-9.941 0-2.804-1.082-3.444-3.051-3.887l-1.082-.197zM424.202 86.58c-1.182 0-1.329.049-1.624.984l-1.821 5.709c-.295.984-.344 1.378-.344 1.771 0 .296.394.591 1.771.837l1.477.246c.295.344.394 1.476-.099 1.722-1.723-.098-3.691-.098-5.758-.148-1.673 0-2.805.148-5.067.148-.542-.295-.493-1.329-.148-1.722l1.328-.148c1.182-.148 2.215-.541 3.002-2.46.886-1.969 1.723-4.331 3.051-7.874l4.43-12.007c1.181-3.1 2.066-4.823 1.92-6.249 2.36-.542 4.182-2.953 4.28-2.953.64 0 .935.246 1.133.984.393 1.427.982 3.248 2.214 6.742l6.691 19.29c1.033 2.953 1.477 4.035 3.297 4.379l1.87.296c.296.246.394 1.427-.049 1.722a188.005 188.005 0 0 0-7.578-.148c-2.461 0-4.38.05-6.644.148-.541-.295-.64-1.329-.099-1.722l1.575-.246c1.132-.197 1.328-.541 1.328-.837 0-.344-.344-1.525-.934-3.346l-1.33-4.232c-.246-.787-.64-.886-2.361-.886h-5.511zm5.266-2.608c1.132 0 1.427-.147.983-1.427l-1.279-3.986c-.688-2.116-1.328-4.134-1.771-5.167-.493 1.082-1.28 3.149-2.019 5.413l-1.229 3.691c-.492 1.329-.197 1.476 1.033 1.476h4.282zM484.43 89.336c0 3.199 0 6.299.099 7.923-.345.59-1.723 1.132-2.904 1.132-.048 0-1.673-2.51-3.985-5.364l-11.367-14.074c-2.806-3.543-4.479-5.561-5.363-6.299-.247.492-.247 1.328-.247 3.149v9.547c0 3.986.198 7.677.738 9.006.442 1.033 1.574 1.328 2.854 1.574l1.377.197c.395.394.296 1.427 0 1.722-2.657-.098-4.625-.147-6.594-.147-1.82 0-3.642.049-5.512.147-.295-.295-.394-1.328 0-1.722l.838-.147c1.328-.296 2.263-.591 2.707-1.624.49-1.329.688-5.02.688-9.006V72.851c0-2.706 0-3.494-.345-4.183-.343-.836-1.082-1.329-2.804-1.673l-1.379-.197c-.345-.394-.295-1.575.197-1.722 2.313.098 4.773.147 6.79.147 1.674 0 3.102-.049 4.134-.147.492 2.214 3.691 5.954 8.12 11.219l4.134 4.872c2.215 2.559 3.593 4.281 4.724 5.413.198-.492.198-1.328.198-2.214v-6.791c0-3.986-.198-7.676-.739-9.006-.443-1.033-1.525-1.328-2.854-1.574l-1.328-.197c-.395-.394-.296-1.427 0-1.722 2.657.098 4.576.147 6.595.147 1.819 0 3.591-.049 5.511-.147.295.295.394 1.328 0 1.722l-.885.148c-1.281.295-2.215.59-2.658 1.623-.542 1.33-.738 5.02-.738 9.006v11.761zM533.139 73.195c0-4.97-.099-5.512-2.166-5.807l-1.524-.196c-.443-.247-.443-1.329.098-1.674 3.248-.246 7.086-.443 11.367-.443 4.183 0 6.938.493 9.006 1.28 3.002 1.132 6.003 3.74 6.003 8.513 0 8.071-8.119 9.251-10.727 9.251-.591 0-1.034 0-1.575-.049-.394-.246-.492-1.033-.147-1.328 4.084-1.28 4.921-4.183 4.921-7.825 0-3.641-1.87-7.578-6.299-7.578-1.821 0-1.92.542-1.92 2.51v20.766c0 4.577.296 4.921 2.51 5.315l1.575.246c.541.246.541 1.378 0 1.673-2.756-.098-5.167-.148-7.529-.148s-4.724.05-7.382.148c-.541-.295-.64-1.427-.098-1.673l1.378-.246c2.214-.394 2.51-.738 2.51-5.315v-17.42zM570.78 86.58c-1.182 0-1.329.049-1.624.984l-1.821 5.709c-.295.984-.344 1.378-.344 1.771 0 .296.394.591 1.771.837l1.477.246c.295.344.394 1.476-.099 1.722-1.723-.098-3.691-.098-5.758-.148-1.673 0-2.805.148-5.067.148-.542-.295-.493-1.329-.148-1.722l1.328-.148c1.182-.148 2.215-.541 3.002-2.46.886-1.969 1.723-4.331 3.051-7.874l4.429-12.007c1.182-3.1 2.067-4.823 1.921-6.249 2.36-.542 4.182-2.953 4.28-2.953.64 0 .935.246 1.133.984.393 1.427.982 3.248 2.214 6.742l6.691 19.29c1.033 2.953 1.477 4.035 3.297 4.379l1.87.296c.296.246.394 1.427-.049 1.722a188.005 188.005 0 0 0-7.578-.148c-2.461 0-4.38.05-6.644.148-.541-.295-.64-1.329-.099-1.722l1.575-.246c1.132-.197 1.328-.541 1.328-.837 0-.344-.344-1.525-.934-3.346l-1.33-4.232c-.246-.787-.64-.886-2.361-.886h-5.511zm5.266-2.608c1.132 0 1.427-.147.983-1.427l-1.279-3.986c-.688-2.116-1.328-4.134-1.771-5.167-.493 1.082-1.28 3.149-2.019 5.413l-1.229 3.691c-.492 1.329-.197 1.476 1.033 1.476h4.282zM605.518 73.195c0-4.92-.099-5.462-2.166-5.757l-1.328-.197c-.492-.246-.492-1.476.099-1.722 3.69-.246 7.529-.443 12.203-.443 4.184 0 7.775.64 9.646 1.771 2.854 1.674 4.33 4.134 4.33 7.284 0 4.379-2.952 6.249-5.216 7.381-.492.246-.492.541-.246 1.082 3.248 6.595 5.266 10.285 7.628 12.303 1.279 1.033 2.56 1.329 3.297 1.378.442.246.442.984.196 1.279-.787.345-2.361.443-3.888.443-4.526 0-7.38-1.624-9.545-5.167-1.576-2.608-2.707-5.019-3.84-7.627-.59-1.329-1.378-1.723-2.608-1.723-1.721 0-1.82.099-1.82 1.083v6.052c0 4.528.295 4.872 2.51 5.266l1.329.246c.345.246.345 1.427 0 1.722a187.573 187.573 0 0 0-7.234-.147c-2.459 0-4.625.049-7.185.147-.394-.295-.394-1.476 0-1.722l1.329-.246c2.214-.394 2.51-.738 2.51-5.266v-17.42zm6.741 6.25c0 1.722.147 1.87 3.051 1.87 1.771 0 2.806-.443 3.74-1.378.837-.836 1.772-2.411 1.772-5.314 0-4.429-2.609-7.283-6.447-7.283-2.017 0-2.017.147-2.116 2.509v9.596zM653.098 78.313c0 1.624.296 1.821.886 1.821 1.034 0 3.002-1.87 3.789-2.854 2.608-3.15 5.02-6.053 6.596-8.366.441-.64.639-1.082.639-1.279 0-.197-.197-.492-.837-.64l-1.132-.197c-.541-.344-.442-1.526.197-1.722 2.51.098 4.33.147 6.102.147 1.822 0 3.987-.049 5.955-.147.59.196.64 1.328.246 1.722-1.723.197-3.199.443-4.232.886-1.969.787-4.035 2.706-7.283 6.298l-2.264 2.56c-.492.541-.64.935-.64 1.131 0 .246.295.837 1.771 3.051 2.461 3.691 5.364 8.415 8.71 12.844 1.329 1.772 2.265 2.067 3.643 2.313l1.574.246c.295.443.295 1.476-.148 1.722-2.46-.098-4.822-.147-7.086-.147-2.509 0-4.97.049-7.726.147-.64-.197-.64-1.427-.099-1.722l1.231-.295c.541-.099.837-.295.837-.492s-.1-.542-.396-.985c-.295-.442-2.361-3.641-2.854-4.379l-2.608-3.986c-1.771-2.707-2.608-3.888-3.69-3.888-1.132 0-1.182.689-1.182 3.346v5.167c0 4.577.296 4.922 2.51 5.315l1.378.197c.394.344.394 1.427 0 1.722a197.564 197.564 0 0 0-7.431-.147c-2.214 0-4.773.049-7.381.147-.393-.295-.393-1.427 0-1.722l1.378-.197c2.214-.393 2.51-.738 2.51-5.315V72.31c0-4.577-.296-4.921-2.51-5.315l-1.378-.197c-.542-.295-.542-1.427 0-1.722a185.432 185.432 0 0 0 14.812 0c.443.295.443 1.427 0 1.722l-1.378.197c-2.214.394-2.51.738-2.51 5.315v6.003zM206.253 35.418C203.076 24.624 198.955 12.881 193.725 0c-69.206 28.098-102.532 106.978-74.434 176.185-6.573-62.586 30.651-119.671 86.962-140.767M197.202 184.005c12.488 15.275 15.446 35.212 9.625 52.638l.003.002c15.594-22.578 14.982-50.666-3.485-68.754-5.681 2.342-11.732 4.033-18.102 5.252a54.778 54.778 0 0 1 11.959 10.862"/><path clip-path="url(#b)" d="M119.291 176.184l60.752 92.585c25.566-16.775 32.692-51.102 15.916-76.668-4.964-7.565-11.488-13.471-18.844-17.666 45.764-5.91 77.419-30.8 77.419-133.494-74.693 0-135.243 60.55-135.243 135.243M7.431 106.303s1.887-.296 5.23-.405c1.668-.024 3.702-.071 6.03.036l3.711.181c1.305.101 2.667.296 4.095.451 2.869.249 5.908.947 9.164 1.476 3.181.841 6.644 1.399 10.024 2.657l5.21 1.716 5.199 2.133c3.555 1.32 6.899 3.237 10.351 4.929 3.397 1.8 6.536 4.045 9.761 6.014 3.08 2.19 5.99 4.515 8.867 6.672 2.754 2.311 5.224 4.771 7.641 7.003 1.237 1.089 2.317 2.272 3.329 3.446l2.98 3.342c1.896 2.153 3.719 4.05 5 6.009l3.525 4.887c1.922 2.723 3.021 4.277 3.021 4.277l-3.412-3.978-3.858-4.586c-1.413-1.833-3.371-3.581-5.32-5.645l-3.094-3.168c-1.05-1.112-2.167-2.229-3.438-3.248l-7.753-6.637c-2.863-2.077-5.754-4.318-8.806-6.422-3.196-1.883-6.306-4.032-9.654-5.754-3.355-1.704-6.605-3.64-10.07-4.981l-5.068-2.171-5.086-1.759-2.484-.86-2.48-.706-4.796-1.384c-3.172-.661-6.145-1.49-8.957-1.862-2.796-.49-5.372-.845-7.67-1.1-2.293-.278-4.308-.38-5.965-.48-1.66-.049-2.967-.123-3.858-.101-.893-.013-1.369.018-1.369.018"/><path clip-path="url(#b)" d="M0 137.33s1.77-.718 5-1.585c1.619-.402 3.59-.912 5.88-1.337l3.656-.669c1.293-.198 2.663-.319 4.09-.493 2.85-.41 5.968-.422 9.259-.649 3.289.095 6.788-.15 10.366.306l5.463.485 5.548.893c3.762.476 7.455 1.582 11.202 2.444 3.717.979 7.285 2.451 10.873 3.634 3.497 1.431 6.86 3.033 10.153 4.479 3.208 1.623 6.173 3.457 9.035 5.078 1.452.779 2.773 1.686 4.026 2.599l3.663 2.576c2.335 1.665 4.543 3.097 6.236 4.713l4.545 3.957 3.915 3.476-4.228-3.096-4.801-3.588c-1.792-1.463-4.097-2.721-6.464-4.285-1.197-.763-2.444-1.559-3.734-2.38-1.276-.844-2.618-1.679-4.088-2.38l-9.06-4.699c-3.261-1.37-6.586-2.895-10.037-4.248-3.54-1.106-7.058-2.491-10.71-3.405-3.655-.896-7.26-2.041-10.939-2.559l-5.429-.96-5.353-.556-2.615-.271-2.575-.123-4.986-.256c-3.239.078-6.322-.052-9.146.225-2.834.16-5.423.401-7.718.675-2.296.252-4.282.611-5.919.892-1.627.33-2.916.556-3.779.778-.872.192-1.329.329-1.329.329M333.002 208.607c0 2.276-1.993 3.226-2.91 3.796 1.677.885 3.353 2.657 4.713 4.428a27.673 27.673 0 0 0 1.677-3.353c.442-1.013.791-1.93.791-2.214s-.317-.476-.854-.569l-.57-.095c-.284-.19-.253-.981.095-1.108h1.297c2.435 0 4.585-.126 6.231-.188.348.126.411.917.063 1.106l-.854.126a4.278 4.278 0 0 0-2.119.95c-.696.538-1.487 1.802-2.372 3.163-.664.949-1.55 2.372-1.898 2.878-.158.221-.38.538-.443.823h.063c0-.127.064.157.538.917 1.107 1.455 1.93 3.32 4.681 3.32 1.139 0 2.373-.538 2.847-.854.253.095.444.506.38.791-.791.949-2.942 2.53-6.295 2.53-2.214 0-3.511-.695-3.922-1.359-.221-.38-.727-1.044-1.044-1.741-1.739 1.646-3.447 3.101-6.389 3.101-4.207 0-6.769-2.403-6.769-5.661 0-3.67 3.257-5.504 4.902-6.2-1.138-.886-2.056-2.278-2.056-3.796 0-3.195 2.721-5.03 5.283-5.03 3.069 0 4.934 1.867 4.934 4.239m-4.585 13.886c2.372 0 3.827-1.897 3.827-1.993 0-.094-.095-.253-.506-.917-1.233-2.15-3.384-3.89-4.713-4.745-.38-.253-.601-.441-.759-.441-.158 0-2.119 1.264-2.119 3.796-.001 2.686 1.96 4.3 4.27 4.3m-.286-16.734c-1.075 0-1.898.98-1.898 2.311 0 2.245 2.183 3.321 2.436 3.384.316-.127 1.36-1.455 1.36-3.29 0-1.171-.6-2.405-1.898-2.405M363.217 206.108c0-.76 0-.917-.76-.917h-1.961c-2.31 0-2.973 1.266-3.922 3.573-.379.191-.981.127-1.17-.284.664-2.183.821-4.144 1.043-5.378a.758.758 0 0 1 .442-.157c.158 0 .316.031.443.127.158.538.253.664 2.657.664h11.767c2.088 0 2.563-.031 2.847-.695a.789.789 0 0 1 .411-.096c.19 0 .411.127.475.222-.316 1.075-.537 3.637-.475 5.44-.157.284-1.012.349-1.17.096-.538-2.025-.98-3.512-3.354-3.512h-1.897c-.759 0-.854.095-.854.917v13.949c0 2.942.19 3.163 1.613 3.386l1.266.157c.222.19.222.917 0 1.107a162.415 162.415 0 0 0-5.061-.095c-1.519 0-3.164.03-5.378.095-.253-.19-.253-.917 0-1.107l1.424-.157c1.424-.223 1.613-.443 1.613-3.386v-13.949zM399.976 214.08c0 6.895-4.618 11.039-11.418 11.039-6.358 0-10.977-4.175-10.977-10.787 0-6.262 4.682-11.102 11.292-11.102 6.579 0 11.103 4.429 11.103 10.85m-11.356-9.396c-3.891 0-5.979 3.639-5.979 8.921 0 3.858 1.36 10.059 6.517 10.059 4.145 0 5.757-4.049 5.757-9.173 0-5.41-2.373-9.807-6.295-9.807M406.589 208.291c0-2.941-.189-3.163-1.612-3.416l-.791-.158c-.254-.19-.285-.887.062-1.075a114.738 114.738 0 0 0 9.237 0c.252.188.252.885 0 1.075l-.761.127c-1.423.284-1.613.506-1.613 3.447v7.308c0 3.7.413 7.781 5.22 7.781 4.049 0 5.282-3.543 5.282-7.876v-3.828c0-2.562-.126-4.966-.475-5.788-.283-.664-.98-.855-1.834-1.013l-.854-.158c-.253-.253-.189-.887 0-1.075 1.708.062 2.942.094 4.239.094 1.171 0 2.34-.031 3.543-.094.188.188.253.822 0 1.075l-.57.127c-.822.188-1.423.38-1.708 1.044-.347.822-.474 3.226-.474 5.788v3.543c0 2.973-.285 5.692-2.025 7.623-1.391 1.485-3.701 2.276-6.262 2.276-2.405 0-4.556-.379-6.265-1.771-1.645-1.36-2.34-3.701-2.34-7.149v-7.907zM432.053 208.859c0-3.163-.062-3.51-1.393-3.7l-.854-.127c-.316-.158-.316-.949.063-1.105 2.372-.158 4.839-.285 7.844-.285 2.69 0 4.998.411 6.2 1.138 1.835 1.076 2.784 2.658 2.784 4.683 0 2.814-1.898 4.017-3.354 4.743-.315.158-.315.35-.158.696 2.088 4.239 3.386 6.612 4.903 7.909.822.664 1.646.853 2.119.885.284.159.284.632.126.823-.506.221-1.517.284-2.499.284-2.909 0-4.744-1.044-6.136-3.321-1.013-1.676-1.74-3.227-2.468-4.903-.379-.854-.886-1.106-1.677-1.106-1.106 0-1.17.062-1.17.695v3.892c0 2.91.189 3.131 1.613 3.384l.854.159c.221.157.221.917 0 1.105a122.683 122.683 0 0 0-4.65-.095c-1.581 0-2.974.032-4.618.095-.253-.188-.253-.948 0-1.105l.854-.159c1.424-.253 1.613-.474 1.613-3.384v-11.201zm4.333 4.017c0 1.107.095 1.202 1.961 1.202 1.14 0 1.804-.284 2.404-.886.538-.538 1.139-1.549 1.139-3.416 0-2.846-1.677-4.681-4.144-4.681-1.297 0-1.297.094-1.36 1.612v6.169zM485.131 214.08c0 6.895-4.618 11.039-11.418 11.039-6.358 0-10.977-4.175-10.977-10.787 0-6.262 4.682-11.102 11.292-11.102 6.579 0 11.103 4.429 11.103 10.85m-11.356-9.396c-3.891 0-5.979 3.639-5.979 8.921 0 3.858 1.36 10.059 6.517 10.059 4.145 0 5.757-4.049 5.757-9.173 0-5.41-2.373-9.807-6.295-9.807M496.425 212.212c0 .854.032.949.886.949h2.436c1.677 0 1.993-.221 2.341-1.771l.158-.761c.222-.283 1.013-.253 1.202.032a55.924 55.924 0 0 0-.095 3.385c0 1.171.031 2.341.095 3.289-.189.285-.98.316-1.202.032l-.158-.76c-.348-1.518-.664-1.771-2.341-1.771h-2.436c-.854 0-.886.096-.886.949v4.271c0 2.94.19 3.163 1.613 3.384l1.171.159c.222.188.222.917 0 1.105a156.646 156.646 0 0 0-5.029-.095c-1.455 0-3.037.032-4.935.095-.253-.188-.253-.917 0-1.105l1.044-.159c1.423-.221 1.614-.443 1.614-3.384V208.29c0-2.94-.191-3.163-1.614-3.446l-.633-.096c-.285-.189-.285-.979.063-1.106 1.359.062 2.941.094 4.46.094h6.643c2.024 0 3.828-.031 4.27-.094 0 .538 0 2.814.063 4.934-.126.348-.822.38-1.202.127-.347-1.297-.601-2.056-.917-2.468-.538-.664-1.486-1.043-3.1-1.043h-2.468c-1.044 0-1.044.062-1.044 1.296v5.724zM527.109 214.584c-1.297 0-1.329.032-1.329.919v4.555c0 2.94.19 3.163 1.613 3.416l1.013.127c.253.188.253.917 0 1.105a141.009 141.009 0 0 0-4.809-.095c-1.518 0-3.099.032-4.713.095-.253-.188-.253-.917 0-1.105l.76-.096c1.423-.284 1.613-.507 1.613-3.447V208.29c0-2.94-.19-3.163-1.613-3.446l-.76-.096c-.253-.189-.253-.918 0-1.106 1.55.062 3.195.094 4.713.094 1.424 0 3.006-.031 4.398-.094.253.188.253.917 0 1.106l-.664.096c-1.361.283-1.552.506-1.552 3.446v3.67c0 .917.032.948 1.329.948h6.579c1.328 0 1.328-.031 1.328-.948v-3.67c0-2.94-.158-3.163-1.612-3.416l-.854-.126c-.253-.189-.253-.918 0-1.106 1.74.062 3.29.094 4.808.094 1.55 0 3.005-.031 4.46-.094.254.188.254.917 0 1.106l-.632.096c-1.455.283-1.645.506-1.645 3.446v11.769c0 2.94.189 3.163 1.645 3.416l.759.127c.253.188.253.917 0 1.105a112.052 112.052 0 0 0-9.235 0c-.254-.188-.254-.917 0-1.105l.695-.096c1.454-.284 1.612-.507 1.612-3.447v-4.555c0-.887 0-.919-1.328-.919h-6.579zM568.073 214.08c0 6.895-4.618 11.039-11.418 11.039-6.358 0-10.977-4.175-10.977-10.787 0-6.262 4.682-11.102 11.292-11.102 6.58 0 11.103 4.429 11.103 10.85m-11.355-9.396c-3.891 0-5.979 3.639-5.979 8.921 0 3.858 1.36 10.059 6.517 10.059 4.145 0 5.757-4.049 5.757-9.173 0-5.41-2.373-9.807-6.295-9.807M572.312 204.748c-.253-.253-.253-1.013.095-1.106a71.9 71.9 0 0 0 3.986.094c1.044 0 1.961 0 3.101-.094 0 1.961 1.106 3.89 2.498 6.864l2.089 4.46c.314.633 1.264 2.435 1.708 3.226.41-.759.917-1.74 1.771-3.605l1.612-3.48c1.551-3.257 2.215-4.744 2.911-7.464 1.455.127 2.436.094 3.384.094 1.044 0 2.499-.031 3.638-.094.349.188.349.791.095 1.106l-.917.158c-1.297.253-1.93.602-1.93 2.278 0 6.515.064 9.931.253 13.918.063 1.455.19 2.182 1.424 2.372l1.013.127c.252.252.252.979-.063 1.106a97.599 97.599 0 0 0-4.365-.096c-1.424 0-3.162.032-4.682.096-.38-.158-.411-.887-.095-1.106l.948-.127c1.455-.286 1.455-.57 1.455-2.499l-.062-8.224v-3.607h-.063c-2.341 5.061-4.87 10.344-6.959 15.69a1.02 1.02 0 0 1-.633.221c-.284 0-.633-.063-.822-.19-1.233-3.922-4.997-11.607-6.77-15.721h-.062c-.128 2.056-.191 3.291-.223 4.935-.032 2.057-.062 5.22-.062 7.117 0 1.581.188 1.992 1.455 2.214l1.232.191c.253.22.19.948-.062 1.106a72.862 72.862 0 0 0-3.733-.096 74.31 74.31 0 0 0-3.574.096c-.411-.127-.411-.949-.126-1.106l.569-.096c1.614-.317 1.708-.476 1.897-2.437.158-1.55.316-4.301.507-7.306.127-2.119.221-4.683.221-6.391 0-1.803-.695-2.214-1.961-2.498l-.698-.126zM609.987 211.959c0 .887.032.948.886.948h2.183c1.646 0 1.994-.22 2.341-1.738l.158-.791c.222-.254 1.013-.254 1.171.031-.063 1.013-.095 2.151-.095 3.354s.031 2.341.095 3.352c-.158.285-.949.317-1.171.032l-.158-.791c-.347-1.518-.695-1.771-2.341-1.771h-2.183c-.854 0-.886.032-.886.98v3.765c0 1.455.127 2.468.507 3.005.411.569 1.013.822 3.321.822 2.752 0 3.827-.094 5.567-3.669.253-.348 1.043-.221 1.17.159-.127 1.644-.885 4.207-1.329 5.06-1.675-.062-4.713-.095-7.306-.095h-4.113c-1.518 0-3.067.032-5.44.095-.253-.188-.253-.948 0-1.105l1.487-.222c1.423-.19 1.614-.411 1.614-3.321V208.26c0-2.879-.191-3.101-1.614-3.354l-.791-.158c-.285-.189-.253-.918.063-1.106 1.486.062 3.036.094 4.555.094h6.706c2.024 0 3.828-.031 4.238-.094.031.506.254 2.783.411 4.903-.126.348-.854.41-1.17.126-.349-1.107-.791-2.057-1.202-2.499-.602-.602-1.55-.981-3.1-.981h-2.531c-1.044 0-1.044.064-1.044 1.234v5.534zM629.631 225.118c-2.91 0-4.713-.821-5.378-1.201-.601-.695-1.012-2.974-1.012-5.124.222-.411.95-.443 1.203-.096.632 2.057 2.751 4.967 5.439 4.967 2.341 0 3.416-1.613 3.416-3.194 0-2.563-2.403-4.081-4.302-5.03-2.277-1.138-4.745-3.037-4.776-6.168 0-3.575 2.752-6.042 7.339-6.042 1.045 0 2.342.127 3.605.506.411.127.696.191 1.076.253.253.696.569 2.404.569 4.524-.158.379-.949.411-1.234.094-.537-1.613-1.897-3.922-4.175-3.922-2.088 0-3.227 1.361-3.227 2.942 0 1.455 1.297 2.783 2.878 3.605l2.088 1.107c1.961 1.044 4.46 2.879 4.46 6.357.002 3.892-3.193 6.422-7.969 6.422"/></svg>